<svg xmlns="http://www.w3.org/2000/svg" width="960" height="485" viewBox="0 0 960 485" role="img" aria-labelledby="title desc">
<title id="title">Эффект дообучения Octen</title>
<desc id="desc">На одинаковой локальной проверке Recall dense-канала, всего пула и итогового топ-50 растёт от исходной модели к пилоту и полной LoRA-модели.</desc>
<rect x="0.0" y="0.0" width="960.0" height="485.0" rx="0" fill="#FFFFFF"/>
<text x="36.0" y="47.0" text-anchor="start" font-family="Arial, Helvetica, sans-serif" font-size="26" font-weight="700" fill="#17253A">Эффект дообучения Octen</text>
<text x="36.0" y="76.0" text-anchor="start" font-family="Arial, Helvetica, sans-serif" font-size="14" font-weight="400" fill="#54657A">BM25 по описанию + dense · k=499 · бонус 0,02 · 5 157 групп</text>
<rect x="340.0" y="92.0" width="16.0" height="16.0" rx="2" fill="#4567A7"/>
<text x="364.0" y="106.0" text-anchor="start" font-family="Arial, Helvetica, sans-serif" font-size="14" font-weight="400" fill="#17253A">Dense</text>
<rect x="470.0" y="92.0" width="16.0" height="16.0" rx="2" fill="#087F78"/>
<text x="494.0" y="106.0" text-anchor="start" font-family="Arial, Helvetica, sans-serif" font-size="14" font-weight="400" fill="#17253A">Пул</text>
<rect x="600.0" y="92.0" width="16.0" height="16.0" rx="2" fill="#B85E18"/>
<text x="624.0" y="106.0" text-anchor="start" font-family="Arial, Helvetica, sans-serif" font-size="14" font-weight="400" fill="#17253A">Топ-50</text>
<line x1="78.0" y1="421.0" x2="920.0" y2="421.0" stroke="#DDE4EC" stroke-width="1"/>
<text x="66.0" y="426.0" text-anchor="end" font-family="Arial, Helvetica, sans-serif" font-size="12" font-weight="400" fill="#54657A">0%</text>
<line x1="78.0" y1="363.8" x2="920.0" y2="363.8" stroke="#DDE4EC" stroke-width="1"/>
<text x="66.0" y="368.8" text-anchor="end" font-family="Arial, Helvetica, sans-serif" font-size="12" font-weight="400" fill="#54657A">20%</text>
<line x1="78.0" y1="306.6" x2="920.0" y2="306.6" stroke="#DDE4EC" stroke-width="1"/>
<text x="66.0" y="311.6" text-anchor="end" font-family="Arial, Helvetica, sans-serif" font-size="12" font-weight="400" fill="#54657A">40%</text>
<line x1="78.0" y1="249.4" x2="920.0" y2="249.4" stroke="#DDE4EC" stroke-width="1"/>
<text x="66.0" y="254.4" text-anchor="end" font-family="Arial, Helvetica, sans-serif" font-size="12" font-weight="400" fill="#54657A">60%</text>
<line x1="78.0" y1="192.2" x2="920.0" y2="192.2" stroke="#DDE4EC" stroke-width="1"/>
<text x="66.0" y="197.2" text-anchor="end" font-family="Arial, Helvetica, sans-serif" font-size="12" font-weight="400" fill="#54657A">80%</text>
<line x1="78.0" y1="135.0" x2="920.0" y2="135.0" stroke="#DDE4EC" stroke-width="1"/>
<text x="66.0" y="140.0" text-anchor="end" font-family="Arial, Helvetica, sans-serif" font-size="12" font-weight="400" fill="#54657A">100%</text>
<rect x="144.0" y="243.6" width="42.0" height="177.4" rx="4" fill="#4567A7"/>
<text x="165.0" y="235.6" text-anchor="middle" font-family="Arial, Helvetica, sans-serif" font-size="13" font-weight="600" fill="#17253A">62,04%</text>
<rect x="199.0" y="193.7" width="42.0" height="227.3" rx="4" fill="#087F78"/>
<text x="220.0" y="185.7" text-anchor="middle" font-family="Arial, Helvetica, sans-serif" font-size="13" font-weight="600" fill="#17253A">79,49%</text>
<rect x="254.0" y="222.5" width="42.0" height="198.5" rx="4" fill="#B85E18"/>
<text x="275.0" y="214.5" text-anchor="middle" font-family="Arial, Helvetica, sans-serif" font-size="13" font-weight="600" fill="#17253A">69,42%</text>
<text x="222.0" y="459.0" text-anchor="middle" font-family="Arial, Helvetica, sans-serif" font-size="17" font-weight="600" fill="#17253A">Исходная</text>
<rect x="424.0" y="219.7" width="42.0" height="201.3" rx="4" fill="#4567A7"/>
<text x="445.0" y="211.7" text-anchor="middle" font-family="Arial, Helvetica, sans-serif" font-size="13" font-weight="600" fill="#17253A">70,40%</text>
<rect x="479.0" y="181.5" width="42.0" height="239.5" rx="4" fill="#087F78"/>
<text x="500.0" y="173.5" text-anchor="middle" font-family="Arial, Helvetica, sans-serif" font-size="13" font-weight="600" fill="#17253A">83,74%</text>
<rect x="534.0" y="210.9" width="42.0" height="210.1" rx="4" fill="#B85E18"/>
<text x="555.0" y="202.9" text-anchor="middle" font-family="Arial, Helvetica, sans-serif" font-size="13" font-weight="600" fill="#17253A">73,46%</text>
<text x="502.0" y="459.0" text-anchor="middle" font-family="Arial, Helvetica, sans-serif" font-size="17" font-weight="600" fill="#17253A">Пилот 10 тыс.</text>
<rect x="704.0" y="211.0" width="42.0" height="210.0" rx="4" fill="#4567A7"/>
<text x="725.0" y="203.0" text-anchor="middle" font-family="Arial, Helvetica, sans-serif" font-size="13" font-weight="600" fill="#17253A">73,43%</text>
<rect x="759.0" y="178.9" width="42.0" height="242.1" rx="4" fill="#087F78"/>
<text x="780.0" y="170.9" text-anchor="middle" font-family="Arial, Helvetica, sans-serif" font-size="13" font-weight="600" fill="#17253A">84,64%</text>
<rect x="814.0" y="208.2" width="42.0" height="212.8" rx="4" fill="#B85E18"/>
<text x="835.0" y="200.2" text-anchor="middle" font-family="Arial, Helvetica, sans-serif" font-size="13" font-weight="600" fill="#17253A">74,41%</text>
<text x="782.0" y="459.0" text-anchor="middle" font-family="Arial, Helvetica, sans-serif" font-size="17" font-weight="600" fill="#17253A">Полная LoRA</text>
</svg>
